<svg width="359" height="105" viewBox="0 0 359 105" fill="none" xmlns="http://www.w3.org/2000/svg">
<path d="M6.69531 104.266C10.2812 104.266 12.8125 101.594 12.8125 97.7266V60.3906C12.8125 47.7344 20.3359 39.4375 32.5 39.4375C43.9609 39.4375 49.7969 46.3984 49.7969 58V97.7266C49.7969 101.594 52.3281 104.266 55.9141 104.266C59.5 104.266 62.0312 101.594 62.0312 97.7266V55.75C62.0312 39.4375 52.3281 28.6094 36.2969 28.6094C25.1875 28.6094 17.1719 33.3906 13.0938 41.5469H12.8125V6.67188C12.8125 2.875 10.4219 0.273438 6.69531 0.273438C3.03906 0.273438 0.578125 2.875 0.578125 6.67188V97.7266C0.578125 101.594 3.10938 104.266 6.69531 104.266ZM108.227 104.266C121.586 104.266 131.852 98.6406 136.562 88.7266C137.125 87.3906 137.477 86.125 137.477 85.1406C137.477 81.9062 135.297 79.7969 132.062 79.7969C130.164 79.7969 128.758 80.5 127.492 82.2578C121.797 90.5547 116.453 93.6484 107.734 93.6484C94.6562 93.6484 86.5703 84.5078 86.5703 69.7422H132.273C136.492 69.7422 139.023 67.0703 139.023 62.6406C139.023 42.6016 125.875 28.6094 107.172 28.6094C86.9922 28.6094 73.9844 43.6562 73.9844 66.7188C73.9844 90.3438 86.6406 104.266 108.227 104.266ZM86.6406 60.1797C87.4141 47.5938 95.5703 39.2266 106.961 39.2266C118.281 39.2266 126.086 47.5234 126.367 60.1797H86.6406ZM172.703 104.266C182.547 104.266 191.898 98.7812 196.258 90.4141H196.539V98.0781C196.539 101.734 198.93 104.266 202.375 104.266C205.75 104.266 208.141 101.734 208.141 98.0781V52.4453C208.141 37.8906 197.312 28.6094 180.156 28.6094C168.273 28.6094 157.586 33.8828 153.438 41.8984C152.453 43.6562 151.961 45.4141 151.961 46.9609C151.961 50.2656 154.211 52.4453 157.375 52.4453C159.695 52.4453 161.312 51.5312 162.438 49.4922C166.516 42.25 171.93 39.3672 179.875 39.3672C190 39.3672 195.906 44.7109 195.906 53.6406V59.7578L174.883 60.9531C158.008 61.9375 148.375 69.8125 148.375 82.3281C148.375 95.4766 158.148 104.266 172.703 104.266ZM175.445 93.8594C166.656 93.8594 160.82 89.2891 160.82 82.3281C160.82 75.4375 166.445 71.0781 176.289 70.4453L195.906 69.25V75.2266C195.906 85.7734 186.977 93.8594 175.445 93.8594ZM230.43 104.266C234.016 104.266 236.547 101.594 236.547 97.7266V6.8125C236.547 2.94531 234.016 0.273438 230.43 0.273438C226.844 0.273438 224.312 2.94531 224.312 6.8125V97.7266C224.312 101.594 226.844 104.266 230.43 104.266ZM257.008 86.125C257.008 97.7969 262.914 103.562 274.727 103.562H275.5C282.32 103.562 284.43 101.594 284.43 97.8672C284.43 94.9844 282.602 93.3672 278.594 93.0859L277.539 93.0156C271.422 92.5938 269.242 89.6406 269.242 83.4531V39.9297H278.664C282.18 39.9297 284.148 38.1016 284.148 34.8672C284.148 31.7031 282.18 29.875 278.664 29.875H269.242V17.3594C269.242 13.4922 266.711 10.8203 263.125 10.8203C259.539 10.8203 257.008 13.4922 257.008 17.3594V29.875H250.891C247.375 29.875 245.406 31.7031 245.406 34.8672C245.406 38.1016 247.375 39.9297 250.891 39.9297H257.008V86.125ZM303.273 104.266C306.859 104.266 309.391 101.594 309.391 97.7266V60.3906C309.391 47.7344 316.914 39.4375 329.078 39.4375C340.539 39.4375 346.375 46.3984 346.375 58V97.7266C346.375 101.594 348.906 104.266 352.492 104.266C356.078 104.266 358.609 101.594 358.609 97.7266V55.75C358.609 39.4375 348.906 28.6094 332.875 28.6094C321.766 28.6094 313.75 33.3906 309.672 41.5469H309.391V6.67188C309.391 2.875 307 0.273438 303.273 0.273438C299.617 0.273438 297.156 2.875 297.156 6.67188V97.7266C297.156 101.594 299.688 104.266 303.273 104.266Z" fill="#FE6748"/>
</svg>
